<?xml version="1.0" encoding="UTF-8"?>
<svg viewBox="0 0 500 500" xmlns="http://www.w3.org/2000/svg">
  <ellipse style="fill: rgb(23, 25, 35);" cx="250" cy="250" rx="250" ry="250"/>
  <path d="M 112.14400164794922 234.20101440429687 C 98.10250164794923 234.20101440429687 86.61400164794922 222.71251440429688 86.61400164794922 208.67101440429684 C 86.61400164794922 194.62951440429686 98.10250164794923 183.14101440429687 112.14400164794922 183.14101440429687 L 188.73400164794924 183.14101440429687 C 202.77550164794923 183.14101440429687 214.26400164794924 194.62951440429686 214.26400164794924 208.67101440429684 L 214.26400164794924 234.20101440429687 Z M 214.26400164794924 285.2610144042969 C 214.26400164794924 299.30251440429686 202.77550164794923 310.7910144042969 188.73400164794924 310.7910144042969 L 112.14400164794922 310.7910144042969 C 98.10250164794923 310.7910144042969 86.61400164794922 299.30251440429686 86.61400164794922 285.2610144042969 L 61.08400164794922 285.2610144042969 C 61.849901647949224 314.1099144042969 84.31630164794922 336.3210144042969 112.14400164794922 336.3210144042969 L 188.73400164794924 336.3210144042969 C 217.32760164794922 336.3210144042969 239.79400164794924 312.3228144042969 239.79400164794924 285.2610144042969 L 239.79400164794924 208.67101440429684 C 239.79400164794924 180.33271440429687 215.54050164794924 157.61101440429687 188.73400164794924 157.61101440429687 L 112.14400164794922 157.61101440429687 C 83.55040164794923 157.61101440429687 61.08400164794922 181.60921440429686 61.08400164794922 208.67101440429684 C 61.08400164794922 237.51991440429686 84.82690164794923 259.73101440429684 112.14400164794922 259.73101440429684 L 214.26400164794924 259.73101440429684 Z M 311.2745634765625 310.7910144042969 C 297.2330634765625 310.7910144042969 285.7445634765625 299.30251440429686 285.7445634765625 285.2610144042969 C 285.7445634765625 271.2195144042969 297.2330634765625 259.73101440429684 311.2745634765625 259.73101440429684 L 387.8645634765625 259.73101440429684 C 401.9060634765625 259.73101440429684 413.39456347656255 271.2195144042969 413.39456347656255 285.2610144042969 C 413.39456347656255 299.30251440429686 401.9060634765625 310.7910144042969 387.8645634765625 310.7910144042969 Z M 387.8645634765625 183.14101440429687 C 401.9060634765625 183.14101440429687 413.39456347656255 194.62951440429686 413.39456347656255 208.67101440429684 C 413.39456347656255 222.71251440429688 401.9060634765625 234.20101440429687 387.8645634765625 234.20101440429687 L 311.2745634765625 234.20101440429687 C 297.2330634765625 234.20101440429687 285.7445634765625 222.71251440429688 285.7445634765625 208.67101440429684 C 285.7445634765625 194.62951440429686 297.2330634765625 183.14101440429687 311.2745634765625 183.14101440429687 Z M 311.2745634765625 157.61101440429687 C 282.6809634765625 158.37691440429685 260.2145634765625 181.09861440429685 260.2145634765625 208.67101440429684 C 260.2145634765625 223.98901440429688 266.0864634765625 236.75401440429687 277.5749634765625 246.96601440429686 C 266.0864634765625 257.17801440429685 260.2145634765625 269.9430144042969 260.2145634765625 285.2610144042969 C 260.2145634765625 314.1099144042969 283.9574634765625 336.3210144042969 311.2745634765625 336.3210144042969 L 387.8645634765625 336.3210144042969 C 416.4581634765625 336.3210144042969 438.9245634765625 312.3228144042969 438.9245634765625 285.2610144042969 C 438.9245634765625 269.9430144042969 433.05266347656254 257.17801440429685 421.5641634765625 246.96601440429686 C 433.05266347656254 236.75401440429687 438.9245634765625 223.98901440429688 438.9245634765625 208.67101440429684 C 438.9245634765625 180.33271440429687 414.6710634765625 157.61101440429687 387.8645634765625 157.61101440429687 Z" transform="matrix(1, 0, 0, 1, 0, 0)" style="fill: rgb(99, 255, 32); white-space: pre;"/>
</svg>